<?xml version="1.0" standalone="no"?><svg xmlns="http://www.w3.org/2000/svg" viewBox="0 0 1440 320"><path fill="#f3f4f5" fill-opacity="0.5" d="M0,256L40,218.7C80,181,160,107,240,69.3C320,32,400,32,480,58.7C560,85,640,139,720,181.3C800,224,880,256,960,272C1040,288,1120,288,1200,277.3C1280,267,1360,245,1400,234.7L1440,224L1440,320L1400,320C1360,320,1280,320,1200,320C1120,320,1040,320,960,320C880,320,800,320,720,320C640,320,560,320,480,320C400,320,320,320,240,320C160,320,80,320,40,320L0,320Z"></path></svg>